<svg xmlns="http://www.w3.org/2000/svg" xmlns:xlink="http://www.w3.org/1999/xlink" id="Layer_1" x="0" y="0" version="1.1" viewBox="0 0 200 200" xml:space="preserve" style="enable-background:new 0 0 200 200"><style type="text/css">.st0{fill:url(#SVGID_2_)}.st1{fill:url(#SVGID_4_)}.st2{clip-path:url(#SVGID_8_);fill:url(#SVGID_11_)}.st3{fill:url(#SVGID_12_)}.st4{fill:url(#SVGID_13_)}.st5{opacity:.25;clip-path:url(#SVGID_16_);fill:url(#SVGID_17_);enable-background:new}.st6{fill:url(#SVGID_18_)}.st7{opacity:.1}.st8{fill:#fff}</style><g><g><g><g><g><g><g><g><g><linearGradient id="SVGID_2_" x1="0" x2="200" y1="-1285.85" y2="-1285.85" gradientTransform="matrix(1 0 0 -1 0 -1186)" gradientUnits="userSpaceOnUse"><stop offset="0" style="stop-color:#492c5d"/><stop offset=".996" style="stop-color:#714a6c"/></linearGradient><rect id="SVGID_1_" width="200" height="200.3" y="-.3" class="st0"/></g><g><g><g><g><linearGradient id="SVGID_4_" x1="0" x2="200" y1="697.85" y2="697.85" gradientTransform="matrix(1 0 0 1 0 -598)" gradientUnits="userSpaceOnUse"><stop offset="0" style="stop-color:#492c5d"/><stop offset=".996" style="stop-color:#714a6c"/></linearGradient><rect id="SVGID_3_" width="200" height="200.3" y="-.3" class="st1"/></g><g><g><defs><rect id="SVGID_6_" width="200" height="200.3" y="-.3"/></defs><linearGradient id="SVGID_7_" x1="0" x2="200" y1="99.85" y2="99.85" gradientUnits="userSpaceOnUse"><stop offset="0" style="stop-color:#492c5d"/><stop offset=".996" style="stop-color:#714a6c"/></linearGradient><use xlink:href="#SVGID_6_" style="overflow:visible;fill:url(#SVGID_7_)"/><clipPath id="SVGID_8_"><use xlink:href="#SVGID_6_" style="overflow:visible"/></clipPath><linearGradient id="SVGID_11_" x1="0" x2="200" y1="-3055.604" y2="-3055.604" gradientTransform="matrix(1 0 0 -1 0 -2956)" gradientUnits="userSpaceOnUse"><stop offset="0" style="stop-color:#492c5d"/><stop offset=".996" style="stop-color:#714a6c"/></linearGradient><rect width="200" height="199.8" y="-.3" class="st2"/></g></g></g></g></g></g></g></g></g></g></g></g><g><g><g><g><g><g><g><g><linearGradient id="SVGID_12_" x1="0" x2="200" y1="-1285.85" y2="-1285.85" gradientTransform="matrix(1 0 0 -1 0 -1186)" gradientUnits="userSpaceOnUse"><stop offset="0" style="stop-color:#492c5d"/><stop offset=".996" style="stop-color:#714a6c"/></linearGradient><rect id="SVGID_5_" width="200" height="200.3" y="-.3" class="st3"/></g><g><g><g><g><linearGradient id="SVGID_13_" x1="0" x2="200" y1="697.85" y2="697.85" gradientTransform="matrix(1 0 0 1 0 -598)" gradientUnits="userSpaceOnUse"><stop offset="0" style="stop-color:#492c5d"/><stop offset=".996" style="stop-color:#714a6c"/></linearGradient><rect id="SVGID_10_" width="200" height="200.3" y="-.3" class="st4"/></g><g><g><defs><rect id="SVGID_14_" width="200" height="200.3" y="-.3"/></defs><linearGradient id="SVGID_15_" x1="0" x2="200" y1="99.85" y2="99.85" gradientUnits="userSpaceOnUse"><stop offset="0" style="stop-color:#492c5d"/><stop offset=".996" style="stop-color:#714a6c"/></linearGradient><use xlink:href="#SVGID_14_" style="overflow:visible;fill:url(#SVGID_15_)"/><clipPath id="SVGID_16_"><use xlink:href="#SVGID_14_" style="overflow:visible"/></clipPath><linearGradient id="SVGID_17_" x1="5073.139" x2="5276.574" y1="-3054.376" y2="-3054.376" gradientTransform="matrix(1 0 1 -1 -2014 -2956)" gradientUnits="userSpaceOnUse"><stop offset="0" style="stop-color:#492c5d"/><stop offset=".996" style="stop-color:#714a6c"/></linearGradient><polygon points="106.5 .1 306.5 .1 106.5 196.7 -93.5 196.7" class="st5"/></g></g></g></g></g></g></g></g></g></g><g><g><g><g><g><g><linearGradient id="SVGID_18_" x1="0" x2="200" y1="-1285.85" y2="-1285.85" gradientTransform="matrix(1 0 0 -1 0 -1186)" gradientUnits="userSpaceOnUse"><stop offset="0" style="stop-color:#492c5d"/><stop offset=".996" style="stop-color:#714a6c"/></linearGradient><rect id="SVGID_9_" width="200" height="200.3" y="-.3" class="st6"/></g></g></g></g></g></g></g></g></g><g class="st7"><g id="Layer_1_5_"><g><path d="M163.3,159.5l-6-5.7c0.7-1.3,1.1-2.7,1.1-4.3c0-4.9-4-8.9-8.9-8.9s-8.9,4-8.9,8.9c0,4.9,4,8.9,8.9,8.9 c1.7,0,3.3-0.5,4.7-1.4l6,5.7C161.1,161.6,162.2,160.5,163.3,159.5z" class="st8"/><path d="M188.7,158.8l8-13.4c0.8,0.2,1.6,0.4,2.5,0.4c4.9,0,8.9-4,8.9-8.9c0-4.9-4-8.9-8.9-8.9c-4.9,0-8.9,4-8.9,8.9 c0,2.4,1,4.6,2.6,6.2l-7.9,13.4C186.2,157.1,187.5,157.9,188.7,158.8z" class="st8"/><path d="M216.1,170c-3.8,0-7.1,2.4-8.3,5.8l-11.1-1.1c0,0.1,0,0.2,0,0.2c0,1.4-0.2,2.9-0.4,4.2l11.1,1.1 c0.7,4.2,4.3,7.5,8.8,7.5c4.9,0,8.9-4,8.9-8.9C225,174,221,170,216.1,170z" class="st8"/><path d="M185.6,205l-2.5-10.8c-1.4,0.5-2.8,0.8-4.4,1l2.5,10.8c-2.8,1.5-4.8,4.4-4.8,7.9c0,4.9,4,8.9,8.9,8.9 c4.9,0,8.9-4,8.9-8.9C194.2,209,190.4,205.1,185.6,205z" class="st8"/><path d="M156.6,179.3l-13.8,4.6c-1.6-2.4-4.3-4-7.4-4c-4.9,0-8.9,4-8.9,8.9c0,4.9,4,8.9,8.9,8.9c4.9,0,8.9-4,8.9-8.9 c0-0.2,0-0.4-0.1-0.6l13.8-4.6C157.4,182.2,156.9,180.7,156.6,179.3z" class="st8"/><circle cx="176.4" cy="175" r="15.2" class="st8"/></g></g></g><g class="st7"><g id="Layer_1_1_"><g><path d="M-12.5,149.4l-8.2-7.8c1-1.7,1.5-3.7,1.5-5.8c0-6.7-5.4-12.2-12.2-12.2s-12.2,5.4-12.2,12.2 s5.5,12.2,12.2,12.2c2.4,0,4.6-0.7,6.4-1.9l8.2,7.8C-15.5,152.2-14.1,150.7-12.5,149.4z" class="st8"/><path d="M22.2,148.4l10.9-18.4c1.1,0.3,2.2,0.5,3.4,0.5c6.7,0,12.2-5.5,12.2-12.2c0-6.7-5.4-12.2-12.2-12.2 c-6.7,0-12.2,5.4-12.2,12.2c0,3.3,1.3,6.4,3.5,8.6l-10.9,18.3C18.8,146.1,20.6,147.2,22.2,148.4z" class="st8"/><path d="M59.8,163.8c-5.2,0-9.7,3.3-11.4,8l-15.2-1.5c0,0.1,0,0.2,0,0.3c0,2-0.2,3.9-0.6,5.8l15.2,1.5 c0.9,5.8,5.9,10.3,12,10.3c6.7,0,12.2-5.4,12.2-12.2C72,169.2,66.6,163.8,59.8,163.8z" class="st8"/><path d="M18,211.7l-3.4-14.8c-1.9,0.7-3.9,1.1-6,1.4l3.4,14.8c-3.9,2-6.6,6.1-6.6,10.8c0,6.7,5.4,12.2,12.2,12.2 c6.7,0,12.2-5.4,12.2-12.2C29.8,217.2,24.5,211.9,18,211.7z" class="st8"/><path d="M-21.8,176.5l-18.9,6.3c-2.2-3.3-5.9-5.5-10.2-5.5c-6.7,0-12.2,5.4-12.2,12.2c0,6.7,5.4,12.2,12.2,12.2 c6.7,0,12.2-5.4,12.2-12.2c0-0.3-0.1-0.5-0.1-0.8l18.9-6.3C-20.6,180.5-21.3,178.5-21.8,176.5z" class="st8"/><circle cx="5.4" cy="170.6" r="20.9" class="st8"/></g></g></g></svg>