<svg xmlns="http://www.w3.org/2000/svg" xmlns:xlink="http://www.w3.org/1999/xlink" id="Layer_1" x="0" y="0" version="1.1" viewBox="0 0 200 200" xml:space="preserve" style="enable-background:new 0 0 200 200"><style type="text/css">.st0{fill:url(#SVGID_2_)}.st1{fill:url(#SVGID_4_)}.st2{clip-path:url(#SVGID_7_);fill:url(#SVGID_8_)}.st3{fill:url(#SVGID_11_)}.st4{fill:url(#SVGID_12_)}.st5{opacity:.25;clip-path:url(#SVGID_14_);fill:url(#SVGID_15_);enable-background:new}.st6{fill:url(#SVGID_16_)}.st7{opacity:.12}.st8{fill:#fff}.st9{opacity:.24}</style><g><g><g><g><g><g><g><g><g><linearGradient id="SVGID_2_" x1="0" x2="200.6" y1="1489.6" y2="1489.6" gradientTransform="matrix(1 0 0 1 0 -1388)" gradientUnits="userSpaceOnUse"><stop offset="0" style="stop-color:#82da3b"/><stop offset=".996" style="stop-color:#27a87c"/></linearGradient><rect id="SVGID_1_" width="200.6" height="203.8" y="-.3" class="st0"/></g><g><g><g><g><linearGradient id="SVGID_4_" x1="0" x2="200.6" y1="100.4" y2="100.4" gradientTransform="matrix(1 0 0 -1 0 202)" gradientUnits="userSpaceOnUse"><stop offset="0" style="stop-color:#82da3b"/><stop offset=".996" style="stop-color:#27a87c"/></linearGradient><rect id="SVGID_3_" width="200.6" height="203.8" y="-.3" class="st1"/></g><g><defs><rect id="SVGID_6_" width="200.6" height="203.8" y="-.3"/></defs><clipPath id="SVGID_7_"><use xlink:href="#SVGID_6_" style="overflow:visible"/></clipPath><linearGradient id="SVGID_8_" x1="0" x2="200.6" y1="3259.35" y2="3259.35" gradientTransform="matrix(1 0 0 1 0 -3158)" gradientUnits="userSpaceOnUse"><stop offset="0" style="stop-color:#82da3b"/><stop offset=".996" style="stop-color:#27a87c"/></linearGradient><rect width="200.6" height="203.3" y="-.3" class="st2"/></g></g></g></g></g></g></g></g></g></g></g><g><g><g><g><g><g><g><g><linearGradient id="SVGID_11_" x1="0" x2="200.6" y1="1489.6" y2="1489.6" gradientTransform="matrix(1 0 0 1 0 -1388)" gradientUnits="userSpaceOnUse"><stop offset="0" style="stop-color:#82da3b"/><stop offset=".996" style="stop-color:#27a87c"/></linearGradient><rect id="SVGID_5_" width="200.6" height="203.8" y="-.3" class="st3"/></g><g><g><g><g><linearGradient id="SVGID_12_" x1="0" x2="200.6" y1="100.4" y2="100.4" gradientTransform="matrix(1 0 0 -1 0 202)" gradientUnits="userSpaceOnUse"><stop offset="0" style="stop-color:#82da3b"/><stop offset=".996" style="stop-color:#27a87c"/></linearGradient><rect id="SVGID_10_" width="200.6" height="203.8" y="-.3" class="st4"/></g><g><defs><rect id="SVGID_13_" width="200.6" height="203.8" y="-.3"/></defs><clipPath id="SVGID_14_"><use xlink:href="#SVGID_13_" style="overflow:visible"/></clipPath><linearGradient id="SVGID_15_" x1="4777.3" x2="4978.5" y1="3258.1" y2="3258.1" gradientTransform="matrix(1 0 -1 1 -1513 -3158)" gradientUnits="userSpaceOnUse"><stop offset="0" style="stop-color:#82da3b"/><stop offset=".996" style="stop-color:#27a87c"/></linearGradient><polygon points="106.8 .1 307.4 .1 106.8 200.1 -93.8 200.1" class="st5"/></g></g></g></g></g></g></g></g></g><g><g><g><g><g><g><linearGradient id="SVGID_16_" x1="0" x2="200.6" y1="1489.6" y2="1489.6" gradientTransform="matrix(1 0 0 1 0 -1388)" gradientUnits="userSpaceOnUse"><stop offset="0" style="stop-color:#82da3b"/><stop offset=".996" style="stop-color:#27a87c"/></linearGradient><rect id="SVGID_9_" width="200.6" height="203.8" y="-.3" class="st6"/></g></g></g></g></g></g></g></g></g><g><g><g><g><g><g><g class="st7"><g><g><path d="M46.5,152.9c-2.6-2.6-6.8-2.6-9.4,0c-2.6,2.6-2.6,6.8,0,9.4c2.6,2.6,6.8,2.6,9.4,0 C49.1,159.7,49.1,155.5,46.5,152.9z M44.6,160.5c-1.6,1.6-4.1,1.6-5.7,0c-1.6-1.6-1.6-4.1,0-5.7c1.6-1.6,4.1-1.6,5.7,0 C46.2,156.4,46.2,158.9,44.6,160.5z" class="st8"/></g></g><g><g><path d="M61.6,137.8c-0.3-0.3-0.6-0.4-1-0.4c-0.3,0-7.5,0.3-16,3.3c-6.8,2.4-12.6,5.9-17,10.3 c-1,1-1.9,2-2.9,3.1c-4.4-2.6-7.9-1.8-10.1-0.6c-5.1,2.7-8.2,10.1-8.2,15.4c0,0.5,0.3,1,0.8,1.2c0.2,0.1,0.3,0.1,0.5,0.1 c0.3,0,0.7-0.1,0.9-0.4c2.7-2.7,6-2.5,7.1-2.4l0.5,0.5c-0.9,2.2-1.7,4.4-2.2,6.5c-0.2,0.8-0.1,1.6,0.2,2.3 c-1.3,0.6-2.5,1.5-3.6,2.5c-3.4,3.4-4.1,11.8-4.2,12.2c0,0.4,0.1,0.8,0.4,1c0.3,0.3,0.6,0.4,0.9,0.4h0.1 c0.4,0,8.7-0.7,12.2-4.2c1.1-1.1,1.9-2.3,2.5-3.6c0.8,0.3,1.6,0.3,2.3,0.2c2.1-0.5,4.3-1.3,6.5-2.2l0.5,0.5 c0.1,1.1,0.3,4.4-2.4,7.1c-0.4,0.4-0.5,1-0.3,1.5s0.7,0.8,1.2,0.8c5.3,0,12.7-3.1,15.4-8.2c1.2-2.2,2-5.7-0.6-10.1 c1.1-0.9,2.1-1.9,3.1-2.9c4.4-4.4,7.9-10.1,10.3-17c3-8.5,3.3-15.7,3.3-16C62,138.4,61.9,138.1,61.6,137.8z M9.5,166.1 c0.8-4,3.2-8.4,6.5-10.2c2.2-1.2,4.6-1.1,7.1,0.3c-2.2,2.8-4,5.9-5.6,9.1c0,0-0.3-0.3-0.7-0.4 C16.6,164.9,13,164.2,9.5,166.1z M18.2,186.9c-1.8,1.8-6.1,2.8-8.9,3.2c0.4-2.7,1.4-7,3.2-8.9c1-1,2.2-1.8,3.4-2.2l4.5,4.5 C20,184.7,19.2,185.9,18.2,186.9z M24.3,182.8c-0.4,0.1-0.8,0-1.2-0.4c-1.7-1.7-2.4-2.4-2.6-2.6c-0.4-0.4-1.3-1.3-3.4-3.4 c-0.3-0.3-0.5-0.8-0.4-1.2c0.4-1.7,1-3.4,1.7-5.1l11,11C27.7,181.8,25.9,182.3,24.3,182.8z M43.5,183.5 c-1.7,3.3-6.2,5.7-10.2,6.5c1.3-2.4,1.6-5.5,1.1-7.3c-0.1-0.4-0.4-0.6-0.4-0.7c3.2-1.6,6.3-3.4,9.1-5.6 C44.6,178.9,44.7,181.3,43.5,183.5z M46.5,169.9c-1.2,1.2-2.5,2.4-3.9,3.5c-3.3,2.6-6.8,4.8-10.6,6.6l-12.6-12.6 c1.8-3.8,4-7.4,6.6-10.6c1.1-1.4,2.3-2.6,3.5-3.9c4-4,9.1-7.1,15.2-9.4l11.2,11.2C53.6,160.8,50.5,166,46.5,169.9z M56.9,151.9l-9.3-9.3c5.1-1.6,9.5-2.2,11.7-2.4C59,142.4,58.4,146.8,56.9,151.9z" class="st8"/></g></g><g><g><path d="M16.3,194.5c-0.5-0.5-1.4-0.5-1.9,0l-9,9c-0.5,0.5-0.5,1.4,0,1.9s1.4,0.5,1.9,0l9-9 C16.8,195.8,16.8,195,16.3,194.5z" class="st8"/></g></g><g><g><path d="M5.6,194.5c-0.5-0.5-1.4-0.5-1.9,0l-9,9c-0.5,0.5-0.5,1.4,0,1.9s1.4,0.5,1.9,0l9-9 C6.1,195.8,6.1,195,5.6,194.5z" class="st8"/></g></g><g><g><path d="M5,183.1c-0.5-0.5-1.4-0.5-1.9,0l-9,9c-0.5,0.5-0.5,1.4,0,1.9s1.4,0.5,1.9,0l9-9 C5.5,184.5,5.5,183.7,5,183.1z" class="st8"/></g></g></g><g class="st9"><g><g><path d="M191.8,130.6c-3.8-3.8-9.9-3.8-13.7,0s-3.8,9.9,0,13.7s9.9,3.8,13.7,0S195.6,134.3,191.8,130.6z M189.1,141.6c-2.3,2.3-5.9,2.3-8.2,0s-2.3-5.9,0-8.2s5.9-2.3,8.2,0C191.3,135.6,191.3,139.2,189.1,141.6z" class="st8"/></g></g><g><g><path d="M213.7,108.8c-0.4-0.4-0.9-0.6-1.4-0.6c-0.4,0-10.8,0.4-23.2,4.8c-9.9,3.5-18.2,8.5-24.6,14.9 c-1.4,1.4-2.8,2.9-4.2,4.5c-6.3-3.7-11.4-2.6-14.6-0.8c-7.4,3.9-11.9,14.6-11.9,22.3c0,0.8,0.5,1.5,1.2,1.8 c0.2,0.1,0.5,0.1,0.7,0.1c0.5,0,1-0.2,1.4-0.6c3.9-3.9,8.7-3.6,10.2-3.4l0.7,0.7c-1.3,3.2-2.4,6.3-3.2,9.4 c-0.3,1.1-0.2,2.3,0.2,3.4c-1.9,0.9-3.7,2.1-5.2,3.7c-5,5-6,17.1-6,17.6c0,0.6,0.2,1.1,0.6,1.5c0.4,0.4,0.9,0.6,1.4,0.6 c0.1,0,0.1,0,0.2,0c0.5,0,12.6-1.1,17.6-6c1.6-1.6,2.8-3.4,3.7-5.2c1.1,0.4,2.3,0.5,3.4,0.2c3.1-0.8,6.2-1.9,9.4-3.2 l0.7,0.7c0.2,1.6,0.4,6.4-3.4,10.2c-0.6,0.6-0.7,1.4-0.4,2.1c0.3,0.7,1,1.2,1.8,1.2c7.7,0,18.3-4.6,22.3-11.9 c1.7-3.2,2.9-8.3-0.8-14.6c1.6-1.3,3.1-2.7,4.5-4.2c6.4-6.4,11.4-14.6,14.9-24.6c4.4-12.4,4.8-22.8,4.8-23.2 C214.2,109.6,214,109.1,213.7,108.8z M138.1,149.6c1.2-5.8,4.7-12.2,9.4-14.7c3.2-1.7,6.6-1.5,10.3,0.5 c-3.1,4.1-5.9,8.6-8.1,13.2c0,0-0.4-0.5-1-0.6C148.4,147.9,143.3,146.8,138.1,149.6z M150.8,179.8 c-2.7,2.7-8.9,4.1-12.8,4.6c0.6-3.9,2-10.2,4.6-12.8c1.5-1.5,3.2-2.6,4.9-3.3l6.5,6.5C153.4,176.6,152.3,178.2,150.8,179.8 z M159.6,173.8c-0.6,0.1-1.2-0.1-1.7-0.5c-2.5-2.5-3.5-3.5-3.8-3.8c-0.6-0.6-1.9-1.9-5-5c-0.5-0.5-0.7-1.1-0.5-1.7 c0.6-2.4,1.4-4.9,2.4-7.4l16,16C164.5,172.3,162,173.1,159.6,173.8z M187.4,174.8c-2.5,4.7-8.9,8.2-14.7,9.4 c1.9-3.5,2.3-7.9,1.6-10.6c-0.2-0.6-0.6-0.9-0.6-1c4.7-2.3,9.1-5,13.2-8.1C189,168.1,189.1,171.6,187.4,174.8z M191.8,155.1c-1.7,1.7-3.6,3.4-5.6,5c-4.7,3.8-9.9,7-15.4,9.6l-18.2-18.2c2.6-5.5,5.8-10.7,9.6-15.4c1.6-2,3.3-3.8,5-5.6 c5.7-5.7,13.1-10.3,22-13.6l16.2,16.2C202.1,142.1,197.5,149.4,191.8,155.1z M206.7,129.1l-13.5-13.5 c7.4-2.3,13.8-3.1,17-3.5C209.9,115.3,209,121.8,206.7,129.1z" class="st8"/></g></g><g><g><path d="M148,190.8c-0.8-0.8-2-0.8-2.7,0l-13.1,13.1c-0.8,0.8-0.8,2,0,2.7c0.8,0.8,2,0.8,2.7,0l13.1-13.1 C148.8,192.6,148.8,191.4,148,190.8z" class="st8"/></g></g><g><g><path d="M132.6,190.8c-0.8-0.8-2-0.8-2.7,0l-13.1,13.1c-0.8,0.8-0.8,2,0,2.7c0.8,0.8,2,0.8,2.7,0l13.1-13.1 C133.3,192.6,133.3,191.4,132.6,190.8z" class="st8"/></g></g><g><g><path d="M131.6,174.3c-0.8-0.8-2-0.8-2.7,0l-13.1,13.1c-0.8,0.8-0.8,2,0,2.7c0.8,0.8,2,0.8,2.7,0l13.1-13.1 C132.4,176.2,132.4,175.1,131.6,174.3z" class="st8"/></g></g></g></g></g></g></g></g></g></svg>