<?xml version="1.0" encoding="utf-8"?>
<!-- Generator: Adobe Illustrator 23.0.2, SVG Export Plug-In . SVG Version: 6.00 Build 0)  -->
<svg version="1.1" id="Layer_1" xmlns="http://www.w3.org/2000/svg" xmlns:xlink="http://www.w3.org/1999/xlink" x="0px" y="0px"
	 viewBox="0 0 200 200" style="enable-background:new 0 0 200 200;" xml:space="preserve">
<style type="text/css">
	.st0{display:none;}
	.st1{display:inline;}
	.st2{clip-path:url(#SVGID_2_);fill:url(#SVGID_3_);}
	.st3{opacity:0.25;clip-path:url(#SVGID_5_);fill:url(#SVGID_6_);enable-background:new    ;}
	.st4{opacity:0.25;clip-path:url(#SVGID_8_);fill:url(#SVGID_9_);enable-background:new    ;}
	.st5{clip-path:url(#SVGID_11_);fill:url(#SVGID_12_);}
	.st6{clip-path:url(#SVGID_14_);fill:url(#SVGID_15_);}
	.st7{clip-path:url(#SVGID_17_);fill:url(#SVGID_18_);}
	.st8{fill:#FFFFFF;}
</style>

<g>
	<g>
		<path class="st8" d="M39.7,69.3H48v41.3c-4.2,0.9-7.4,1.2-10.7,1.2c-10.1,0-15.4-4.9-15.4-14.4c0-9.1,5.6-15,14.2-15
			c1.3,0,2.4,0.1,3.6,0.5L39.7,69.3L39.7,69.3z M39.7,90.1c-1-0.3-1.8-0.5-2.8-0.5c-4.2,0-6.6,2.8-6.6,7.6c0,4.7,2.3,7.4,6.6,7.4
			c0.9,0,1.7-0.1,2.8-0.2C39.7,104.4,39.7,90.1,39.7,90.1z"/>
		<path class="st8" d="M61.1,83.1v20.7c0,7.1-0.5,10.5-1.9,13.5c-1.3,2.8-3.1,4.6-6.8,6.6l-7.7-3.9c3.7-1.9,5.4-3.5,6.6-6
			c1.2-2.5,1.6-5.5,1.6-13.3V83.1H61.1z M52.9,69.4h8.3v9.1h-8.3V69.4z"/>
		<path class="st8" d="M66.1,85.1c3.7-1.9,7.1-2.7,11-2.7c4.2,0,7,1.2,8.3,3.6c0.7,1.3,0.9,3.1,0.9,6.8v18.1c-3.7,0.6-8.4,1-11.8,1
			c-6.9,0-10-2.6-10-8.4c0-6.3,4.1-9.1,14.3-10.1v-2c0-1.6-0.8-2.2-2.8-2.2c-3.1,0-6.5,0.9-9.7,2.7L66.1,85.1L66.1,85.1z M79.1,99.3
			c-5.5,0.6-7.2,1.5-7.2,3.8c0,1.7,1,2.5,3.3,2.5c1.2,0,2.4-0.1,4-0.4L79.1,99.3L79.1,99.3z"/>
		<path class="st8" d="M90.3,84.5c4.9-1.4,8.9-2,13-2c4.2,0,7.3,1,9.1,3.1c1.7,1.9,2.3,4,2.3,8.5v17.5h-8.3V94.3
			c0-3.4-1.1-4.7-4-4.7c-1.1,0-2.1,0.1-3.8,0.6v21.2h-8.3L90.3,84.5L90.3,84.5z"/>
		<path class="st8" d="M117.9,116.3c2.9,1.6,5.8,2.4,8.9,2.4c5.4,0,7.7-2.4,7.7-8c0-0.1,0-0.1,0-0.2c-1.6,0.9-3.2,1.2-5.4,1.2
			c-7.2,0-11.9-5.2-11.9-13.3c0-10.1,6.8-15.9,18.9-15.9c3.5,0,6.8,0.4,10.8,1.3l-2.8,6.4c-2.2-0.5-0.2-0.1-1.8-0.2v0.9l0.1,3.8
			l0.1,4.9c0.1,1.2,0.1,2.4,0.1,3.6c0,1.1,0,1.6,0,2.4c0,7.6-0.6,11.2-2.4,14.2c-2.6,4.3-7,6.5-13.4,6.5c-3.2,0-6-0.5-8.9-1.7
			L117.9,116.3L117.9,116.3z M134.3,89.7c-0.1,0-0.2,0-0.3,0h-0.6c-1.6-0.1-3.5,0.4-4.8,1.3c-2,1.2-3,3.4-3,6.5c0,4.5,2,7,5.7,7
			c1.1,0,2-0.2,3.1-0.6v-0.6v-2.4c0-1-0.1-2.2-0.1-3.4l-0.1-4.1l-0.1-3L134.3,89.7L134.3,89.7z"/>
		<path class="st8" d="M159.8,82.3c8.3,0,13.3,5.6,13.3,14.7c0,9.3-5.3,15.2-13.6,15.2c-8.3,0-13.4-5.6-13.4-14.6
			C146.1,88.2,151.4,82.3,159.8,82.3z M159.6,105c3.2,0,5-2.8,5-7.8c0-4.9-1.8-7.8-5-7.8c-3.3,0-5.2,2.8-5.2,7.8
			C154.5,102.2,156.4,105,159.6,105z"/>
	</g>
</g>
</svg>
