<svg xmlns="http://www.w3.org/2000/svg" width="174" height="174" fill="none" viewBox="0 0 174 174"><path fill="#fff" d="M95.6671 56.9171C92.9705 56.4981 90.4292 58.3487 90.0009 61.0493C89.7966 62.358 90.1139 63.6673 90.8945 64.7354C91.675 65.8041 92.8257 66.5047 94.1344 66.7083C94.3921 66.7486 94.6486 66.7677 94.9017 66.7677C97.3003 66.7677 99.4146 65.0209 99.7966 62.5814C100.217 59.8867 98.367 57.3467 95.6724 56.9184C95.6704 56.9178 95.6691 56.9178 95.6671 56.9171ZM96.4569 62.0599C96.3234 62.9158 95.5144 63.5027 94.6552 63.3685C94.2381 63.3038 93.872 63.081 93.6241 62.7413C93.3763 62.4022 93.2758 61.9865 93.3399 61.5747C93.4635 60.7962 94.139 60.2383 94.903 60.2383C94.9824 60.2383 95.063 60.2443 95.1443 60.2568C96.0015 60.3943 96.5904 61.2033 96.4569 62.0599Z"/><path fill="#fff" d="M101.144 73.8841C100.936 75.1888 101.251 76.4962 102.029 77.5669C102.811 78.6402 103.962 79.3435 105.273 79.5484C105.53 79.5887 105.785 79.6085 106.038 79.6079C108.433 79.6079 110.551 77.8623 110.939 75.4215C111.143 74.1135 110.826 72.8042 110.046 71.7341C109.265 70.6634 108.114 69.9615 106.805 69.7579H106.805C104.104 69.3369 101.564 71.1901 101.144 73.8841ZM107.315 73.7255C107.563 74.0665 107.664 74.4836 107.6 74.8954C107.463 75.7533 106.652 76.3415 105.793 76.2087C105.378 76.1439 105.011 75.9198 104.763 75.5781C104.516 75.2391 104.417 74.8266 104.483 74.4102C104.604 73.6343 105.276 73.0784 106.04 73.0784C106.121 73.0784 106.202 73.0844 106.284 73.0976C106.7 73.1624 107.066 73.3851 107.315 73.7255Z"/><path fill="#fff" d="M112.842 91.7685C113.623 92.8385 114.774 93.5411 116.083 93.7447C116.341 93.7856 116.6 93.8055 116.857 93.8055C117.898 93.8055 118.91 93.4776 119.768 92.8524C120.839 92.0718 121.541 90.9218 121.745 89.6138C121.949 88.3071 121.632 86.9985 120.852 85.9291C120.07 84.8597 118.92 84.1577 117.611 83.9535C114.91 83.5325 112.371 85.3831 111.949 88.0804C111.745 89.3891 112.062 90.6984 112.842 91.7685ZM115.289 88.6026C115.41 87.8286 116.082 87.2747 116.844 87.2747C116.926 87.2747 117.008 87.2807 117.089 87.2939H117.091C117.507 87.3587 117.873 87.5821 118.121 87.9224C118.369 88.2622 118.47 88.6772 118.405 89.0923C118.341 89.5074 118.117 89.8729 117.777 90.1207C117.436 90.3692 117.019 90.4704 116.604 90.4049C116.187 90.3402 115.822 90.1174 115.573 89.777C115.325 89.436 115.224 89.0189 115.289 88.6026Z"/><path fill="#fff" d="M133.065 55.5154C131.697 53.6397 129.687 52.4103 127.406 52.0528L117.904 50.567C116.984 50.4229 116.117 51.0534 115.974 51.9761C115.829 52.8981 116.46 53.7626 117.382 53.9067L126.883 55.3925C128.273 55.6099 129.498 56.3614 130.335 57.5075C131.171 58.6536 131.511 60.0488 131.293 61.4361L125.825 96.3231C125.417 98.9292 123.157 100.797 120.596 100.797C120.327 100.797 120.054 100.777 119.78 100.734L100.795 97.7607V85.9213C100.795 81.1414 96.9044 77.2524 92.1218 77.2524H82.3313L85.9209 54.3396C86.1384 52.9503 86.8912 51.7249 88.0399 50.8882C89.1866 50.0534 90.5812 49.7144 91.9698 49.9338L104.105 51.8413C105.025 51.986 105.892 51.3561 106.037 50.4341C106.181 49.5121 105.551 48.6469 104.629 48.5022L92.4959 46.5947C90.2157 46.2345 87.9275 46.789 86.0498 48.1559C84.1707 49.524 82.9394 51.5339 82.5812 53.8162L78.9103 77.2531H56.7814C51.9989 77.2524 48.1079 81.1414 48.1079 85.9213V121.23C48.1079 126.013 51.9989 129.903 56.7814 129.903H92.1218C96.9044 129.903 100.795 126.013 100.795 121.23V101.182L119.259 104.073C119.709 104.143 120.155 104.177 120.596 104.177C124.793 104.177 128.495 101.116 129.165 96.8466L134.633 61.9602C134.99 59.68 134.434 57.3912 133.065 55.5154ZM97.4153 121.23C97.4153 124.148 95.0405 126.523 92.1218 126.523H56.7814C53.8627 126.523 51.488 124.148 51.488 121.23V85.9213C51.488 83.0052 53.8627 80.6331 56.7814 80.6331H80.3518H80.3584H80.3637H92.1218C95.0405 80.6331 97.4146 83.0052 97.4146 85.9213V121.23H97.4153Z"/><path fill="#fff" d="M61.5157 86.9626C58.7827 86.9626 56.5593 89.1847 56.5593 91.9164C56.5593 94.648 58.7827 96.8708 61.5157 96.8708C64.2513 96.8708 66.4767 94.648 66.4767 91.9164C66.4767 89.1847 64.2513 86.9626 61.5157 86.9626ZM61.5157 93.4901C60.6466 93.4901 59.9394 92.7842 59.9394 91.9164C59.9394 91.0492 60.6466 90.3427 61.5157 90.3427C62.3875 90.3427 63.0967 91.0492 63.0967 91.9164C63.0967 92.7842 62.3875 93.4901 61.5157 93.4901Z"/><path fill="#fff" d="M74.5091 97.9238C71.7761 97.9238 69.5527 100.147 69.5527 102.878C69.5527 105.612 71.7761 107.837 74.5091 107.837C77.2421 107.837 79.4655 105.613 79.4655 102.878C79.4655 100.147 77.2421 97.9238 74.5091 97.9238ZM74.5091 104.457C73.64 104.457 72.9328 103.749 72.9328 102.878C72.9328 102.01 73.64 101.305 74.5091 101.305C75.3783 101.305 76.0855 102.01 76.0855 102.878C76.0855 103.749 75.3783 104.457 74.5091 104.457Z"/><path fill="#fff" d="M87.3829 87.0149C84.6499 87.0149 82.4265 89.2376 82.4265 91.9693C82.4265 94.701 84.6499 96.923 87.3829 96.923C90.1185 96.923 92.3439 94.701 92.3439 91.9693C92.3439 89.2376 90.1179 87.0149 87.3829 87.0149ZM87.3829 93.543C86.5138 93.543 85.8066 92.8371 85.8066 91.9693C85.8066 91.1015 86.5138 90.3956 87.3829 90.3956C88.2547 90.3956 88.9639 91.1015 88.9639 91.9693C88.9639 92.8371 88.2547 93.543 87.3829 93.543Z"/><path fill="#fff" d="M61.5157 110.227C58.7827 110.227 56.5593 112.449 56.5593 115.181C56.5593 117.913 58.7827 120.135 61.5157 120.135C64.2513 120.135 66.4767 117.913 66.4767 115.181C66.4767 112.449 64.2513 110.227 61.5157 110.227ZM61.5157 116.755C60.6466 116.755 59.9394 116.049 59.9394 115.181C59.9394 114.313 60.6466 113.607 61.5157 113.607C62.3875 113.607 63.0967 114.313 63.0967 115.181C63.0967 116.049 62.3875 116.755 61.5157 116.755Z"/><path fill="#fff" d="M87.3829 110.28C84.6499 110.28 82.4265 112.502 82.4265 115.234C82.4265 117.965 84.6499 120.188 87.3829 120.188C90.1185 120.188 92.3439 117.965 92.3439 115.234C92.3439 112.502 90.1179 110.28 87.3829 110.28ZM87.3829 116.807C86.5138 116.807 85.8066 116.102 85.8066 115.234C85.8066 114.366 86.5138 113.66 87.3829 113.66C88.2547 113.66 88.9639 114.366 88.9639 115.234C88.9639 116.102 88.2547 116.807 87.3829 116.807Z"/><path fill="#fff" d="M110.77 52.8735L110.799 52.8782C110.893 52.894 110.986 52.9019 111.079 52.9019C111.89 52.9019 112.606 52.3157 112.744 51.4895C112.897 50.5688 112.275 49.6977 111.355 49.5444L111.326 49.5397C110.403 49.3858 109.534 50.0084 109.381 50.929C109.228 51.8491 109.85 52.7202 110.77 52.8735Z"/><defs><linearGradient id="paint0_linear" x1="87.269" x2="8.156" y1=".382" y2="161.296" gradientUnits="userSpaceOnUse"><stop offset=".162" stop-color="#FFAF36"/><stop offset="1" stop-color="#FC303E"/></linearGradient></defs></svg>