<svg xmlns="http://www.w3.org/2000/svg" xmlns:xlink="http://www.w3.org/1999/xlink" id="Layer_1" x="0" y="0" version="1.1" viewBox="0 0 200 200" xml:space="preserve" style="enable-background:new 0 0 200 200"><style type="text/css">.st3{fill:#fff}</style><g><path d="M47.2,128.1V78.2c0,0,0-3.5,3.4-5.4s41.3-24.5,41.3-24.5s4.8-3.2,9.8,0c0,0,44.9,24.9,44.2,26.4L126,86.4 c0,0-3.8-8.8-13.7-13.5c-11.8-5.7-31-6.5-44.7,13.9c0,0-9,14.1,0.3,32.9l-19.8,11.2C48.1,130.8,47.2,130.2,47.2,128.1z" class="st3"/><path d="M111.1,94.7c-2.9-4.9-8.2-8.2-14.4-8.2C87.5,86.5,80,94,80,103.2c0,2.9,0.7,5.6,2.1,8L111.1,94.7z" class="st3"/><path d="M82,111.1c2.9,4.9,8.2,8.2,14.4,8.2c9.2,0,16.7-7.5,16.7-16.7c0-2.9-0.7-5.6-2.1-8L82,111.1z" class="st3"/><path d="M145.9,74.7l-48.4,27.6l48,28.2C147.3,129.5,145.9,74.7,145.9,74.7z M127.5,104.8h-4.1v4.1H119v-4.1h-4.2v-4.3 h4.2v-4.3h4.4v4.3h4.1V104.8z M141.6,104.8h-4.1v4.1h-4.4v-4.1H129v-4.3h4.2v-4.3h4.4v4.3h4.1V104.8z" class="st3"/><path d="M67.8,119.5c0,0,9.6,17.7,29.7,16.8S126,119,126,119l19.5,11.3c0,0,4.3,0.8-43.4,26.8c0,0-5.1,3.4-10.6,0 c0,0-43-24.1-43.4-26.4C48.1,130.7,67.8,119.5,67.8,119.5z" class="st3"/></g></svg>