<svg xmlns="http://www.w3.org/2000/svg" xmlns:xlink="http://www.w3.org/1999/xlink" id="Layer_1" x="0" y="0" version="1.1" viewBox="0 0 200 200" xml:space="preserve" style="enable-background:new 0 0 200 200"><style type="text/css">.st4{fill:#fff}</style><g><g><g><path d="M119,140.4H66c-0.9,0-1.6,0.7-1.6,1.6c0,0.9,0.7,1.6,1.6,1.6h53c0.9,0,1.6-0.7,1.6-1.6 C120.6,141.1,119.9,140.4,119,140.4z" class="st4"/><path d="M119,148.4H66c-0.9,0-1.6,0.7-1.6,1.6c0,0.9,0.7,1.6,1.6,1.6h53c0.9,0,1.6-0.7,1.6-1.6 C120.6,149.1,119.9,148.4,119,148.4z" class="st4"/><path d="M119,156.3H66c-0.9,0-1.6,0.7-1.6,1.6c0,0.9,0.7,1.6,1.6,1.6h53c0.9,0,1.6-0.7,1.6-1.6 C120.6,157,119.9,156.3,119,156.3z" class="st4"/></g><path d="M167.9,43.7h-46.3c-3.6,0-6.7,2.8-6.7,6.5V75h-3.2v-6.4c0-1.1-0.4-2.2-1.2-3c-0.8-0.8-1.9-1.2-3-1.2H93.9 v-4.8c3.1-0.7,5.4-3.5,5.3-6.7c0-3.8-3.1-6.9-6.9-6.9c-3.8,0-6.9,3.1-6.9,6.9c0,3.3,2.4,6,5.3,6.7v4.8H77.5c-1.1,0-2.2,0.4-3,1.2 c-0.8,0.8-1.2,1.9-1.2,3V75H55.8c-2.5,0-5,1-6.7,2.8c-1.8,1.8-2.8,4.2-2.8,6.7v39.9c0,2.5,1,4.9,2.8,6.7c1.8,1.8,4.2,2.8,6.7,2.7 h73.4c2.5,0,5-1,6.7-2.7c1.8-1.8,2.8-4.2,2.8-6.7V81.9h29.2c1.7,0,3.4-0.7,4.7-1.9c1.2-1.2,1.9-2.9,2-4.6V50.2 C174.5,46.5,171.5,43.7,167.9,43.7z M88.7,52.8c0-2,1.7-3.7,3.7-3.7c2,0,3.7,1.7,3.7,3.7c0,2-1.7,3.7-3.7,3.7 C90.3,56.5,88.7,54.9,88.7,52.8z M76.5,68.6c0-0.3,0.1-0.5,0.3-0.7c0.2-0.2,0.5-0.3,0.7-0.3h30c0.3,0,0.5,0.1,0.7,0.3 c0.2,0.2,0.3,0.5,0.3,0.7V75H76.5V68.6z M129.2,130.6H55.8c-1.7,0-3.3-0.6-4.5-1.8c-1.2-1.2-1.9-2.8-1.9-4.5V84.4 c0-1.7,0.7-3.3,1.9-4.5c1.2-1.2,2.8-1.8,4.5-1.8h59.8c1.1,2.4,3.4,3.7,6,3.7h1.5v10.4c0,0.6,0.3,1.2,0.9,1.5 c0.2,0.1,0.4,0.1,0.6,0.1c0.4,0,0.8-0.1,1.1-0.4l9.9-8.8v39.7c0,1.7-0.7,3.3-1.9,4.5C132.5,130,130.8,130.6,129.2,130.6z M171.3,75.3c0,0.9-0.4,1.8-1,2.4c-0.6,0.6-1.5,1-2.4,1H138c-0.4,0-0.7,0.2-1,0.4l-10.7,9.6v-8.4c0-0.9-0.8-1.6-1.7-1.7h-3 c-1.6,0-3-1-3.4-2.6c-0.1-0.2-0.1-0.5-0.2-0.8V50.2c0-1.9,1.7-3.3,3.5-3.3h46.3c1.9,0,3.4,1.4,3.4,3.3V75.3z" class="st4"/><path d="M166.1,54.8h-3.4c-0.9,0-1.6,0.7-1.6,1.6s0.7,1.6,1.6,1.6h3.4c0.9,0,1.6-0.7,1.6-1.6S167,54.8,166.1,54.8z" class="st4"/><path d="M150,58h7.2c0.9,0,1.6-0.7,1.6-1.6s-0.7-1.6-1.6-1.6H150c-0.9,0-1.6,0.7-1.6,1.6S149.1,58,150,58z" class="st4"/><path d="M123.4,58h20.8c0.9,0,1.6-0.7,1.6-1.6s-0.7-1.6-1.6-1.6h-20.8c-0.9,0-1.6,0.7-1.6,1.6S122.5,58,123.4,58z" class="st4"/><path d="M166.1,63.3h-12.3c-0.9,0-1.6,0.7-1.6,1.6s0.7,1.6,1.6,1.6h12.3c0.9,0,1.6-0.7,1.6-1.6S167,63.3,166.1,63.3z" class="st4"/><path d="M129,64.9c0,0.9,0.7,1.6,1.6,1.6h17.6c0.9,0,1.6-0.7,1.6-1.6s-0.7-1.6-1.6-1.6h-17.6 C129.7,63.3,129,64,129,64.9z" class="st4"/><path d="M123.4,66.5h1.2c0.9,0,1.6-0.7,1.6-1.6s-0.7-1.6-1.6-1.6h-1.2c-0.9,0-1.6,0.7-1.6,1.6S122.5,66.5,123.4,66.5z" class="st4"/><path d="M166.1,71.8h-0.3c-0.9,0-1.6,0.7-1.6,1.6c0,0.9,0.7,1.6,1.6,1.6h0.3c0.9,0,1.6-0.7,1.6-1.6 C167.7,72.5,167,71.8,166.1,71.8z" class="st4"/><path d="M160.1,71.8h-13c-0.9,0-1.6,0.7-1.6,1.6c0,0.9,0.7,1.6,1.6,1.6h13c0.9,0,1.6-0.7,1.6-1.6 C161.7,72.5,161,71.8,160.1,71.8z" class="st4"/><path d="M141.3,71.8h-17.9c-0.9,0-1.6,0.7-1.6,1.6c0,0.9,0.7,1.6,1.6,1.6h17.9c0.9,0,1.6-0.7,1.6-1.6 C142.9,72.5,142.2,71.8,141.3,71.8z" class="st4"/></g><circle cx="77.2" cy="105" r="5.7" class="st4"/><circle cx="106.7" cy="105" r="5.7" class="st4"/></g></svg>