<svg width="178" height="171" viewBox="0 0 178 171" fill="none" xmlns="http://www.w3.org/2000/svg">
<ellipse cx="88.6667" cy="85.5" rx="88.6667" ry="85.5" fill="url(#paint0_linear)"/>
<g clip-path="url(#clip0)">
<path d="M72.4842 100.865C72.6348 100.345 72.4864 99.788 72.0949 99.4029C70.8752 98.2066 69.8257 96.8595 68.9738 95.3968C68.5511 94.6709 67.5981 94.413 66.8454 94.8206C66.0926 95.2282 65.8251 96.1471 66.2478 96.873C66.7787 97.7832 67.376 98.6559 68.0351 99.4846C67.1357 99.6062 66.2295 99.675 65.3215 99.6908C64.7631 99.6955 64.2498 99.9871 63.9748 100.456C63.6999 100.924 63.7051 101.499 63.9885 101.963C64.2719 102.427 64.7905 102.71 65.3488 102.705H65.3763C67.398 102.668 69.4083 102.404 71.3669 101.919C71.9079 101.785 72.3338 101.383 72.4842 100.865Z" fill="white"/>
<path d="M64.0866 95.5431C63.473 93.9511 63.0356 92.3009 62.7818 90.6201C62.7131 90.0774 62.345 89.6132 61.8199 89.407C61.2947 89.2008 60.695 89.285 60.2527 89.627C59.8103 89.9691 59.5948 90.5153 59.6895 91.0543C59.8423 92.0689 60.0548 93.0743 60.326 94.0656C59.5956 93.8668 58.8776 93.6279 58.1755 93.3502C57.6567 93.136 57.0585 93.2081 56.6104 93.5388C56.1623 93.8695 55.9338 94.4074 56.0127 94.9463C56.0916 95.4851 56.4656 95.941 56.9911 96.1392C58.7277 96.829 60.5468 97.3069 62.4062 97.5617C62.478 97.5714 62.5505 97.5765 62.623 97.5768C63.1348 97.5765 63.6141 97.3345 63.906 96.9291C64.1978 96.5237 64.2653 96.0061 64.0866 95.5436V95.5431Z" fill="white"/>
<path d="M56.8384 90.4616C57.2608 90.4618 57.6653 90.2971 57.9598 90.005C58.2542 89.7129 58.4135 89.3183 58.4013 88.9112C58.3475 87.1873 58.4553 85.4622 58.7234 83.757C58.8364 82.943 58.2528 82.1916 57.4109 82.0673C56.5691 81.943 55.779 82.4915 55.6342 83.3008C55.4878 84.2236 55.3842 85.1611 55.3245 86.1067C54.7781 85.6865 54.2439 85.2354 53.7219 84.7533C53.0958 84.1957 52.1219 84.2247 51.5325 84.8183C50.9432 85.412 50.9557 86.3514 51.5607 86.9303C52.919 88.1947 54.4206 89.3077 56.0371 90.2482C56.2792 90.388 56.5562 90.4618 56.8384 90.4616Z" fill="white"/>
<path d="M53.6243 81.6134C54.3377 81.6124 54.9602 81.1465 55.1383 80.4803C55.566 78.8512 56.1427 77.2618 56.8615 75.7309C57.1115 75.2387 57.0646 74.6545 56.7392 74.2052C56.4138 73.7559 55.8611 73.5123 55.2959 73.5691C54.7306 73.6259 54.2419 73.9742 54.0195 74.4785C53.6701 75.215 53.3475 75.9797 53.0534 76.7663C52.6505 76.1569 52.2659 75.5239 51.8996 74.8674C51.6438 74.3788 51.1333 74.0624 50.5661 74.0408C49.9989 74.0192 49.4642 74.2959 49.1693 74.7635C48.8743 75.2312 48.8654 75.8163 49.1461 76.292C50.0753 77.9766 51.1685 79.5721 52.4109 81.0572C52.7081 81.409 53.1537 81.6132 53.6243 81.6134Z" fill="white"/>
<path d="M49.7033 65.3677C50.1431 67.3204 50.7559 69.233 51.5349 71.0846C51.7594 71.6158 52.2771 71.978 52.8704 72.019C52.9085 72.0213 52.9451 72.0228 52.9816 72.0228C53.5367 72.0226 54.0501 71.739 54.3309 71.2774C55.1486 69.9169 56.1052 68.6387 57.1866 67.4618C57.7619 66.8408 57.7062 65.8877 57.0622 65.3329C56.4182 64.7782 55.4297 64.8319 54.8545 65.4529C54.3568 65.9915 53.8756 66.5608 53.4107 67.1608C53.1634 66.3647 52.9451 65.5501 52.7558 64.7223C52.6456 64.1871 52.244 63.7511 51.7059 63.5824C51.1678 63.4138 50.5771 63.5388 50.1617 63.9093C49.7462 64.2798 49.5709 64.8378 49.7033 65.3683V65.3677Z" fill="white"/>
<path d="M54.8544 53.8218C53.9941 53.7737 53.2546 54.4035 53.1977 55.2326C53.0662 57.2695 53.1193 59.3137 53.3565 61.3418C53.4224 61.8991 53.8038 62.375 54.3465 62.577C54.8892 62.779 55.5033 62.6736 55.9404 62.3036C57.0711 61.3357 58.3156 60.499 59.6484 59.8106C60.1465 59.5611 60.4676 59.0733 60.4897 58.5325C60.5118 57.9917 60.2315 57.481 59.7553 57.1945C59.2791 56.908 58.6801 56.8898 58.1861 57.1467C57.5257 57.4847 56.8843 57.8561 56.2646 58.2594C56.2402 57.3152 56.2569 56.3659 56.318 55.4196C56.3438 55.0205 56.204 54.6279 55.9295 54.3283C55.655 54.0286 55.2682 53.8464 54.8544 53.8218Z" fill="white"/>
<path d="M65.6908 51.9343C65.661 51.5339 65.4644 51.1622 65.1458 50.9039C64.8272 50.6455 64.4137 50.5225 63.9996 50.5629C63.1711 50.6323 62.3479 50.7513 61.5347 50.9192C61.8185 49.9576 62.1598 49.0128 62.557 48.0893C62.771 47.5919 62.6936 47.0222 62.3539 46.5947C62.0142 46.1673 61.4638 45.9471 60.91 46.0171C60.3563 46.0871 59.8833 46.4366 59.6693 46.934C58.8603 48.8204 58.2579 50.7831 57.872 52.7902C57.7694 53.3205 57.9687 53.8632 58.3943 54.2132C58.82 54.5631 59.4072 54.6671 59.934 54.4856C61.3321 54.0012 62.7888 53.6918 64.2685 53.565C65.1281 53.4932 65.7647 52.7632 65.6908 51.9343Z" fill="white"/>
<path d="M71.2082 49.5474C71.742 49.7057 72.3228 49.5773 72.7319 49.2106C73.1409 48.8439 73.316 48.2947 73.1912 47.7698C73.0664 47.2448 72.6607 46.824 72.1269 46.6658C71.1859 46.3869 70.2282 46.1635 69.2591 45.9968C69.9046 45.2122 70.6081 44.4736 71.3639 43.7867C71.9918 43.2152 72.0205 42.2611 71.4279 41.6556C70.8353 41.0501 69.8458 41.0224 69.2179 41.5939C67.6519 43.0184 66.2847 44.6332 65.1505 46.3977C64.8611 46.8485 64.8387 47.4127 65.0914 47.8835C65.3441 48.3544 65.8348 48.6625 66.3836 48.695C68.0211 48.7943 69.6406 49.0804 71.2082 49.5474Z" fill="white"/>
<path d="M113.868 99.6911C112.96 99.6753 112.054 99.6065 111.155 99.4849C111.814 98.6563 112.411 97.7835 112.942 96.8733C113.365 96.1474 113.097 95.2285 112.345 94.8209C111.592 94.4133 110.639 94.6712 110.216 95.3971C109.364 96.8598 108.315 98.207 107.095 99.4032C106.703 99.7878 106.555 100.345 106.705 100.864C106.855 101.383 107.281 101.786 107.823 101.919C109.782 102.404 111.792 102.668 113.814 102.705H113.841C114.704 102.712 115.41 102.044 115.418 101.211C115.425 100.379 114.732 99.6983 113.868 99.6911Z" fill="white"/>
<path d="M121.014 93.35C120.312 93.6277 119.594 93.8665 118.864 94.0654C119.135 93.074 119.348 92.0687 119.5 91.0541C119.595 90.515 119.38 89.9688 118.937 89.6268C118.495 89.2847 117.895 89.2005 117.37 89.4067C116.845 89.6129 116.477 90.0772 116.408 90.6199C116.154 92.3006 115.717 93.9508 115.103 95.5429C114.925 96.0054 114.992 96.523 115.284 96.9284C115.576 97.3338 116.055 97.5758 116.567 97.5761C116.639 97.5758 116.712 97.5707 116.784 97.561C118.643 97.3062 120.462 96.8283 122.199 96.1385C122.724 95.9403 123.098 95.4844 123.177 94.9456C123.256 94.4067 123.028 93.8688 122.579 93.5381C122.131 93.2074 121.533 93.1353 121.014 93.3495V93.35Z" fill="white"/>
<path d="M125.468 84.7534C124.946 85.2348 124.412 85.6859 123.866 86.1068C123.806 85.1612 123.702 84.2237 123.556 83.3009C123.411 82.4916 122.621 81.9431 121.779 82.0674C120.937 82.1917 120.354 82.9431 120.467 83.7571C120.735 85.4623 120.843 87.1874 120.789 88.9113C120.772 89.4614 121.068 89.9764 121.56 90.2548C122.053 90.5332 122.663 90.5307 123.153 90.2484C124.769 89.3078 126.271 88.1948 127.629 86.9304C128.232 86.3512 128.244 85.4133 127.655 84.8205C127.067 84.2276 126.094 84.1979 125.468 84.7536V84.7534Z" fill="white"/>
<path d="M129.406 74.2512C129.041 74.062 128.612 74.0206 128.216 74.1362C127.819 74.2517 127.486 74.5147 127.29 74.8671C126.924 75.5234 126.54 76.1564 126.137 76.766C125.842 75.9795 125.52 75.2148 125.17 74.4783C124.948 73.9739 124.459 73.6257 123.894 73.5689C123.329 73.5121 122.776 73.7556 122.451 74.2049C122.125 74.6542 122.079 75.2385 122.328 75.7307C123.047 77.2616 123.624 78.8509 124.052 80.48C124.198 81.0318 124.654 81.4569 125.231 81.5789C125.808 81.7009 126.407 81.499 126.779 81.0569C128.022 79.5718 129.115 77.9761 130.044 76.2914C130.452 75.5581 130.166 74.6448 129.406 74.2512Z" fill="white"/>
<path d="M124.859 71.2768C125.14 71.7384 125.653 72.022 126.208 72.0222C126.245 72.0222 126.282 72.0207 126.32 72.0184C126.913 71.9774 127.431 71.6152 127.655 71.084C128.434 69.2324 129.047 67.3198 129.487 65.3671C129.619 64.8366 129.444 64.2785 129.028 63.9081C128.613 63.5376 128.022 63.4126 127.484 63.5812C126.946 63.7499 126.544 64.1858 126.434 64.721C126.245 65.5489 126.027 66.3637 125.779 67.1596C125.316 66.5607 124.834 65.9914 124.336 65.4517C123.76 64.8307 122.772 64.777 122.128 65.3317C121.484 65.8864 121.428 66.8396 122.003 67.4606C123.085 68.6377 124.042 69.9161 124.859 71.2768Z" fill="white"/>
<path d="M119.542 59.8105C120.874 60.499 122.118 61.3358 123.249 62.3037C123.686 62.6746 124.3 62.7805 124.843 62.5784C125.386 62.3763 125.768 61.8997 125.833 61.3419C126.07 59.3138 126.123 57.2696 125.992 55.2327C125.961 54.6925 125.632 54.2096 125.13 53.9675C124.629 53.7254 124.031 53.7612 123.564 54.0613C123.097 54.3614 122.833 54.8798 122.872 55.4195C122.933 56.3658 122.95 57.3151 122.925 58.2593C122.305 57.856 121.664 57.4846 121.003 57.1466C120.241 56.7651 119.303 57.0475 118.901 57.7791C118.5 58.5106 118.785 59.4176 119.541 59.8105H119.542Z" fill="white"/>
<path d="M114.922 53.565C116.402 53.6918 117.858 54.0012 119.256 54.4857C119.783 54.6663 120.37 54.562 120.795 54.2123C121.221 53.8625 121.42 53.3203 121.318 52.7902C120.932 50.7831 120.33 48.8204 119.521 46.934C119.307 46.4366 118.834 46.087 118.28 46.017C117.726 45.947 117.176 46.1672 116.836 46.5946C116.496 47.0221 116.419 47.5919 116.633 48.0894C117.03 49.0127 117.372 49.9574 117.655 50.9189C116.842 50.751 116.019 50.632 115.19 50.5626C114.776 50.5214 114.362 50.6441 114.043 50.9026C113.725 51.1612 113.528 51.5334 113.499 51.934C113.425 52.7632 114.062 53.4933 114.922 53.565Z" fill="white"/>
<path d="M106.028 48.5493C106.15 48.9316 106.424 49.2517 106.79 49.4389C107.157 49.6261 107.585 49.665 107.982 49.5471C109.549 49.0802 111.169 48.7942 112.806 48.695C113.355 48.6625 113.846 48.3544 114.098 47.8835C114.351 47.4127 114.329 46.8485 114.039 46.3977C112.905 44.6332 111.538 43.0184 109.972 41.5939C109.344 41.0224 108.355 41.0501 107.762 41.6556C107.169 42.2611 107.198 43.2152 107.826 43.7867C108.582 44.4735 109.285 45.212 109.931 45.9965C108.962 46.1632 108.004 46.3866 107.063 46.6655C106.667 46.7828 106.335 47.0473 106.141 47.4006C105.947 47.7539 105.906 48.1671 106.028 48.5493Z" fill="white"/>
<path d="M109.913 112.015H97.4095V99.9589C99.135 99.957 100.533 98.6086 100.535 96.9448V93.9306C100.533 92.2668 99.135 90.9184 97.4095 90.9165H94.2837V83.9388L101.517 87.5804C102.502 88.081 103.697 87.9947 104.594 87.3583C105.49 86.7333 105.937 85.6698 105.746 84.6194L103.47 71.9226L113.107 62.9272C113.905 62.1829 114.193 61.0653 113.85 60.0473C113.506 59.0294 112.591 58.2891 111.492 58.1397L98.1681 56.286L92.2096 44.7268C91.7147 43.7715 90.7024 43.168 89.595 43.168C88.4876 43.168 87.4754 43.7715 86.9805 44.7268L81.022 56.286L67.6979 58.1397C66.5986 58.2892 65.6836 59.0296 65.3403 60.0477C64.9969 61.0658 65.2852 62.1836 66.0832 62.928L75.7199 71.9226L73.4442 84.6197C73.2592 85.6736 73.7099 86.7376 74.6072 87.3653C75.5045 87.993 76.6933 88.0759 77.6749 87.5792L84.9064 83.9388V90.9165H81.7806C80.0551 90.9184 78.6568 92.2668 78.6548 93.9306V96.9448C78.6568 98.6086 80.0551 99.957 81.7806 99.9589V112.015H69.2775C67.552 112.017 66.1537 113.366 66.1518 115.03V118.044C66.1537 119.708 67.552 121.056 69.2775 121.058V128.593C69.2795 130.257 70.6778 131.605 72.4033 131.607H106.787C108.512 131.605 109.911 130.257 109.913 128.593V121.058C111.638 121.056 113.036 119.708 113.038 118.044V115.03C113.036 113.366 111.638 112.017 109.913 112.015ZM76.5975 84.7224L78.8197 72.3193C78.9828 71.4068 78.6667 70.4756 77.9758 69.8326L68.5786 61.0615L81.5762 59.253C82.5249 59.1223 83.3462 58.55 83.7725 57.7224L89.595 46.4256L95.4162 57.7205C95.8427 58.5489 96.6645 59.122 97.6141 59.253L110.612 61.0615L101.216 69.831C100.524 70.4747 100.207 71.4072 100.37 72.3211L102.593 84.7212L90.9473 78.8584C90.0992 78.4326 89.0888 78.4332 88.2413 78.8599L76.5975 84.7224ZM88.0322 82.3645L89.595 81.5775L91.1579 82.3645V90.9165H88.0322V82.3645ZM81.7806 93.9306H97.4095L97.411 96.9448H81.7806V93.9306ZM84.9064 99.9589H94.2837V112.015H84.9064V99.9589ZM106.788 128.593H72.4033V121.058H106.787L106.788 128.593ZM108.35 118.044H69.2775V115.03H109.913L109.914 118.044H108.35Z" fill="white"/>
</g>
<defs>
<linearGradient id="paint0_linear" x1="0" y1="85.5" x2="177.333" y2="85.5" gradientUnits="userSpaceOnUse">
<stop stop-color="#32804D"/>
<stop offset="1" stop-color="#A2CA6D"/>
</linearGradient>
<clipPath id="clip0">
<rect width="93.7731" height="90.4241" fill="white" transform="translate(42.7085 41.1832)"/>
</clipPath>
</defs>
</svg>
