<?xml version="1.0" encoding="utf-8"?>
<!-- Generator: Adobe Illustrator 22.1.0, SVG Export Plug-In . SVG Version: 6.00 Build 0)  -->
<svg version="1.1" id="Layer_1" xmlns="http://www.w3.org/2000/svg" xmlns:xlink="http://www.w3.org/1999/xlink" x="0px" y="0px"
	 viewBox="0 0 200 200" style="enable-background:new 0 0 200 200;" xml:space="preserve">
<style type="text/css">
	.st0{clip-path:url(#SVGID_2_);fill:url(#SVGID_3_);}
	.st1{opacity:0.25;clip-path:url(#SVGID_5_);fill:url(#SVGID_6_);enable-background:new    ;}
	.st2{opacity:0.25;clip-path:url(#SVGID_8_);fill:url(#SVGID_9_);enable-background:new    ;}
	.st3{fill:#FFFFFF;}
</style>

<g>
	<path class="st3" d="M154.4,71.5c-5.6-9.7-13.3-17.3-22.9-22.9c-9.7-5.6-20.2-8.4-31.6-8.4c-11.4,0-22,2.8-31.6,8.4
		c-9.7,5.6-17.3,13.3-22.9,22.9c-5.6,9.7-8.4,20.2-8.4,31.6c0,13.7,4,26.1,12,37c8,11,18.4,18.6,31,22.8c1.5,0.3,2.6,0.1,3.3-0.6
		c0.7-0.7,1.1-1.5,1.1-2.5c0-0.2,0-1.6,0-4.4c0-2.8,0-5.2,0-7.3l-1.9,0.3c-1.2,0.2-2.7,0.3-4.6,0.3c-1.8,0-3.7-0.2-5.7-0.6
		c-2-0.4-3.8-1.2-5.5-2.5c-1.7-1.3-2.9-3-3.6-5l-0.8-1.9c-0.5-1.3-1.4-2.7-2.6-4.2c-1.2-1.5-2.4-2.6-3.6-3.1l-0.6-0.4
		c-0.4-0.3-0.7-0.6-1.1-1c-0.3-0.4-0.6-0.8-0.7-1.1c-0.2-0.4,0-0.7,0.4-0.9c0.4-0.2,1.2-0.4,2.4-0.4l1.6,0.2c1.1,0.2,2.4,0.9,4.1,2
		c1.6,1.1,2.9,2.5,4,4.3c1.3,2.2,2.8,4,4.6,5.1c1.8,1.2,3.6,1.8,5.4,1.8s3.4-0.1,4.7-0.4c1.3-0.3,2.5-0.7,3.7-1.2
		c0.5-3.7,1.8-6.5,4-8.5c-3.1-0.3-5.9-0.8-8.4-1.5c-2.5-0.7-5.1-1.7-7.7-3.2c-2.7-1.5-4.9-3.3-6.6-5.5c-1.7-2.2-3.2-5.1-4.3-8.6
		c-1.1-3.6-1.7-7.7-1.7-12.3c0-6.6,2.2-12.3,6.5-16.9c-2-5-1.8-10.6,0.6-16.7c1.6-0.5,3.9-0.1,7.1,1.1c3.1,1.2,5.4,2.3,6.8,3.2
		c1.4,0.9,2.6,1.6,3.5,2.2c5.1-1.4,10.3-2.1,15.8-2.1c5.4,0,10.7,0.7,15.8,2.1l3.1-2c2.1-1.3,4.6-2.5,7.5-3.6
		c2.9-1.1,5.1-1.4,6.6-0.9c2.5,6.2,2.7,11.8,0.7,16.7c4.3,4.6,6.5,10.3,6.5,16.9c0,4.6-0.6,8.8-1.7,12.3c-1.1,3.6-2.6,6.5-4.3,8.6
		c-1.8,2.2-4,4-6.6,5.5c-2.7,1.5-5.2,2.5-7.7,3.2c-2.5,0.7-5.3,1.2-8.4,1.5c2.8,2.5,4.3,6.3,4.3,11.6v17.3c0,1,0.3,1.8,1,2.5
		c0.7,0.7,1.8,0.8,3.2,0.6c12.7-4.2,23-11.8,31.1-22.8c8-11,12-23.3,12-37C162.8,91.7,160,81.2,154.4,71.5z"/>
</g>
</svg>
