<svg xmlns="http://www.w3.org/2000/svg" xmlns:xlink="http://www.w3.org/1999/xlink" id="Layer_1" x="0" y="0" version="1.1" viewBox="0 0 200 200" xml:space="preserve" style="enable-background:new 0 0 200 200"><style type="text/css">.st4{fill:#fff}.st5{font-family:&apos;Gilroy-ExtraBold&apos;}.st6{font-size:14px}.st7{font-family:&apos;Gilroy-Medium&apos;}.st8{font-size:12px}</style><g><g id="Layer_1_5_"><g><path d="M87.1,66.3l-6-5.7c0.7-1.3,1.1-2.7,1.1-4.3c0-4.9-4-8.9-8.9-8.9c-4.9,0-8.9,4-8.9,8.9s4,8.9,8.9,8.9 c1.7,0,3.3-0.5,4.7-1.4l6,5.7C84.9,68.3,85.9,67.2,87.1,66.3z" class="st4"/><path d="M112.4,65.6l8-13.4c0.8,0.2,1.6,0.4,2.5,0.4c4.9,0,8.9-4,8.9-8.9c0-4.9-4-8.9-8.9-8.9c-4.9,0-8.9,4-8.9,8.9 c0,2.4,1,4.6,2.6,6.2l-7.9,13.4C109.9,63.9,111.2,64.7,112.4,65.6z" class="st4"/><path d="M139.9,76.8c-3.8,0-7.1,2.4-8.3,5.8l-11.1-1.1c0,0.1,0,0.2,0,0.2c0,1.4-0.2,2.9-0.4,4.2l11.1,1.1 c0.7,4.2,4.3,7.5,8.8,7.5c4.9,0,8.9-4,8.9-8.9C148.8,80.8,144.8,76.8,139.9,76.8z" class="st4"/><path d="M109.3,111.7l-2.5-10.8c-1.4,0.5-2.8,0.8-4.4,1l2.5,10.8c-2.8,1.5-4.8,4.4-4.8,7.9c0,4.9,4,8.9,8.9,8.9 c4.9,0,8.9-4,8.9-8.9C118,115.8,114.1,111.9,109.3,111.7z" class="st4"/><path d="M80.3,86l-13.8,4.6c-1.6-2.4-4.3-4-7.4-4c-4.9,0-8.9,4-8.9,8.9c0,4.9,4,8.9,8.9,8.9c4.9,0,8.9-4,8.9-8.9 c0-0.2,0-0.4-0.1-0.6l13.8-4.6C81.2,88.9,80.7,87.5,80.3,86z" class="st4"/><circle cx="100.2" cy="81.7" r="15.2" class="st4"/></g></g></g><text class="st4 st5 st6" transform="matrix(1 0 0 1 80.3374 157.5692)">ATOM</text><text class="st4 st7 st8" transform="matrix(1 0 0 1 48.0086 172.6609)">C++ FOR CLASS XII</text></svg>