<?xml version="1.0" encoding="utf-8"?>
<!-- Generator: Adobe Illustrator 23.0.4, SVG Export Plug-In . SVG Version: 6.00 Build 0)  -->
<svg version="1.1" id="Layer_1" xmlns="http://www.w3.org/2000/svg" xmlns:xlink="http://www.w3.org/1999/xlink" x="0px" y="0px"
	 viewBox="0 0 200 200" style="enable-background:new 0 0 200 200;" xml:space="preserve">
<style type="text/css">
	.st0{fill:url(#SVGID_2_);}
	.st1{clip-path:url(#SVGID_4_);fill:url(#SVGID_6_);}
	.st2{fill:url(#SVGID_7_);}
	.st3{opacity:0.25;clip-path:url(#SVGID_10_);fill:url(#SVGID_11_);enable-background:new    ;}
	.st4{fill:url(#SVGID_12_);}
	.st5{opacity:0.31;}
	.st6{clip-path:url(#SVGID_14_);fill:url(#SVGID_15_);}
	.st7{fill:#FFFFFF;}
</style>
<g>
	<g>
		<g>
			<g>
				<g>
					<g>
						
						<g>
							<g>
								<g>
									<path class="st7" d="M124.4,75.6c-4.5-4.5-11.8-4.5-16.3,0c-4.5,4.5-4.5,11.8,0,16.3c4.5,4.5,11.8,4.5,16.3,0
										C128.9,87.4,128.9,80.1,124.4,75.6z M121.1,88.6c-2.7,2.7-7.1,2.7-9.8,0c-2.7-2.7-2.7-7.1,0-9.8c2.7-2.7,7.1-2.7,9.8,0
										C123.8,81.6,123.8,85.9,121.1,88.6z"/>
								</g>
							</g>
							<g>
								<g>
									<path class="st7" d="M150.4,49.6c-0.5-0.5-1.1-0.7-1.7-0.7c-0.5,0-12.9,0.5-27.6,5.7c-11.8,4.2-21.6,10.1-29.2,17.7
										c-1.7,1.7-3.4,3.5-4.9,5.4c-7.5-4.4-13.5-3-17.3-1c-8.8,4.7-14.2,17.4-14.2,26.5c0,0.9,0.6,1.8,1.4,2.1
										c0.3,0.1,0.6,0.2,0.9,0.2c0.6,0,1.2-0.2,1.6-0.7c4.6-4.6,10.3-4.3,12.2-4.1l0.8,0.8c-1.6,3.8-2.9,7.5-3.8,11.2
										c-0.3,1.3-0.2,2.7,0.3,4c-2.2,1-4.4,2.5-6.2,4.4c-5.9,5.9-7.1,20.4-7.2,21c-0.1,0.7,0.2,1.3,0.7,1.8c0.4,0.4,1,0.7,1.6,0.7
										c0.1,0,0.1,0,0.2,0c0.6,0,15-1.3,21-7.2c1.9-1.9,3.4-4,4.4-6.2c1.4,0.5,2.7,0.6,4,0.3c3.6-0.9,7.4-2.2,11.2-3.8l0.8,0.8
										c0.2,1.9,0.5,7.6-4.1,12.2c-0.7,0.7-0.9,1.6-0.5,2.5c0.4,0.9,1.2,1.4,2.1,1.4c9.1,0,21.8-5.4,26.5-14.2
										c2-3.8,3.4-9.8-1-17.3c1.9-1.6,3.7-3.2,5.4-4.9c7.6-7.6,13.6-17.4,17.7-29.2c5.2-14.7,5.7-27.1,5.7-27.6
										C151.1,50.6,150.9,50,150.4,49.6z M60.5,98.3c1.4-6.9,5.6-14.5,11.2-17.5c3.8-2,7.9-1.8,12.3,0.6c-3.7,4.9-7,10.2-9.7,15.8
										c0,0-0.4-0.5-1.2-0.7C72.8,96.3,66.7,95,60.5,98.3z M75.6,134.2c-3.2,3.2-10.6,4.8-15.3,5.5c0.7-4.7,2.4-12.1,5.5-15.3
										c1.8-1.8,3.8-3.1,5.9-3.9l7.7,7.7C78.7,130.3,77.4,132.4,75.6,134.2z M86.1,127c-0.7,0.2-1.4-0.1-2-0.7
										c-3-3-4.1-4.1-4.5-4.5c-0.7-0.7-2.3-2.3-5.9-5.9c-0.6-0.6-0.8-1.3-0.7-2c0.7-2.9,1.7-5.8,2.9-8.8l19,19
										C91.9,125.3,88.9,126.3,86.1,127z M119.2,128.2c-3,5.6-10.6,9.8-17.5,11.2c2.2-4.1,2.7-9.4,1.9-12.6
										c-0.2-0.7-0.7-1.1-0.7-1.2c5.6-2.7,10.9-5.9,15.8-9.7C121,120.4,121.2,124.5,119.2,128.2z M124.4,104.9
										c-2.1,2.1-4.3,4.1-6.6,6c-5.6,4.5-11.8,8.3-18.3,11.4l-21.6-21.6c3-6.6,6.9-12.7,11.4-18.3c1.9-2.3,3.9-4.6,6-6.6
										c6.8-6.8,15.6-12.2,26.2-16.1l19.3,19.3C136.6,89.3,131.2,98.1,124.4,104.9z M142.2,73.9l-16.1-16.1
										c8.8-2.7,16.4-3.7,20.2-4.1C145.9,57.5,144.9,65.1,142.2,73.9z"/>
								</g>
							</g>
							<g>
								<g>
									<path class="st7" d="M72.3,147.2c-0.9-0.9-2.4-0.9-3.3,0l-15.6,15.6c-0.9,0.9-0.9,2.4,0,3.3c0.9,0.9,2.4,0.9,3.3,0
										l15.6-15.6C73.2,149.5,73.2,148.1,72.3,147.2z"/>
								</g>
							</g>
							<g>
								<g>
									<path class="st7" d="M53.9,147.2c-0.9-0.9-2.4-0.9-3.3,0l-15.6,15.6c-0.9,0.9-0.9,2.4,0,3.3c0.9,0.9,2.4,0.9,3.3,0
										l15.6-15.6C54.8,149.5,54.8,148.1,53.9,147.2z"/>
								</g>
							</g>
							<g>
								<g>
									<path class="st7" d="M52.8,127.7c-0.9-0.9-2.4-0.9-3.3,0L34,143.2c-0.9,0.9-0.9,2.4,0,3.3c0.9,0.9,2.4,0.9,3.3,0l15.6-15.6
										C53.7,130,53.7,128.6,52.8,127.7z"/>
								</g>
							</g>
						</g>
					</g>
				</g>
			</g>
		</g>
	</g>
</g>
</svg>
