<?xml version="1.0" encoding="utf-8"?>
<!-- Generator: Adobe Illustrator 22.1.0, SVG Export Plug-In . SVG Version: 6.00 Build 0)  -->
<svg version="1.1" id="Layer_1" xmlns="http://www.w3.org/2000/svg" xmlns:xlink="http://www.w3.org/1999/xlink" x="0px" y="0px"
	 viewBox="0 0 200 200" style="enable-background:new 0 0 200 200;" xml:space="preserve">
<style type="text/css">
	.st0{clip-path:url(#SVGID_2_);fill:url(#SVGID_3_);}
	.st1{opacity:0.25;clip-path:url(#SVGID_5_);fill:url(#SVGID_6_);enable-background:new    ;}
	.st2{opacity:0.25;clip-path:url(#SVGID_8_);fill:url(#SVGID_9_);enable-background:new    ;}
	.st3{fill:#CCFFFF;}
</style>
<g>
	<g>
		<path class="st3" d="M145,64.8l-13.1,1.9l1.9-13.1l-10,10c-6.8-4.6-15-7.3-23.9-7.3c-23.4,0-42.4,19-42.4,42.4s19,42.4,42.4,42.4
			c23.4,0,42.4-19,42.4-42.4c0-8.8-2.7-17.1-7.3-23.9L145,64.8z M99.9,130.5c-17.6,0-31.8-14.3-31.8-31.8s14.3-31.8,31.8-31.8
			c7.4,0,14.1,2.5,19.5,6.7l-7.6,7.6c-3.4-2.3-7.5-3.7-11.9-3.7c-11.7,0-21.2,9.5-21.2,21.2s9.5,21.2,21.2,21.2s21.2-9.5,21.2-21.2
			c0-4.4-1.4-8.5-3.7-11.9l7.6-7.6c4.2,5.4,6.7,12.2,6.7,19.5C131.8,116.2,117.5,130.5,99.9,130.5z M98.1,100.4
			c1.6,1.6,4.1,1.6,5.6,0l5.9-5.9c0.5,1.3,0.8,2.7,0.8,4.1c0,5.9-4.8,10.6-10.6,10.6s-10.6-4.8-10.6-10.6c0-5.9,4.8-10.6,10.6-10.6
			c1.5,0,2.9,0.3,4.1,0.8l-5.9,5.9C96.6,96.4,96.6,98.9,98.1,100.4z"/>
	</g>
</g>
</svg>
