<?xml version="1.0" encoding="utf-8"?>
<!-- Generator: Adobe Illustrator 22.1.0, SVG Export Plug-In . SVG Version: 6.00 Build 0)  -->
<svg version="1.1" id="Layer_1" xmlns="http://www.w3.org/2000/svg" xmlns:xlink="http://www.w3.org/1999/xlink" x="0px" y="0px"
	 viewBox="0 0 200 200" style="enable-background:new 0 0 200 200;" xml:space="preserve">
<style type="text/css">
	.st0{clip-path:url(#SVGID_2_);fill:url(#SVGID_3_);}
	.st1{opacity:0.25;clip-path:url(#SVGID_5_);fill:url(#SVGID_6_);enable-background:new    ;}
	.st2{opacity:0.25;clip-path:url(#SVGID_8_);fill:url(#SVGID_9_);enable-background:new    ;}
	.st3{fill:#FFFFFF;}
</style>
<g id="XMLID_7_">
	<path id="XMLID_8_" class="st3" d="M96.5,59.8c-5.8,4.1-12.3,8.7-15.8,16.3c-6.1,13.3,12.5,27.8,13.2,28.4c0.2,0.1,0.4,0.2,0.6,0.2
		c0.2,0,0.5-0.1,0.7-0.2c0.4-0.3,0.5-0.8,0.3-1.3c-0.1-0.1-6.7-13.1-6.5-22.3c0.1-3.2,4.6-6.9,9.4-10.8c4.4-3.6,9.4-7.6,12.3-12.3
		c6.4-10.4-0.7-20.6-0.8-20.7c-0.3-0.4-0.8-0.5-1.2-0.3c-0.4,0.2-0.7,0.7-0.6,1.2c0,0.1,1.4,6.8-2.4,13.8
		C104,54.5,100.5,57,96.5,59.8z"/>
	<path id="XMLID_9_" class="st3" d="M120.8,64.4c0.4-0.3,0.5-0.9,0.3-1.3c-0.2-0.4-0.8-0.6-1.3-0.5c-1,0.4-24,9.2-24,20
		c0,7.4,3.2,11.3,5.5,14.1c0.9,1.1,1.7,2.1,1.9,2.9c0.7,2.4-1,6.7-1.7,8.1c-0.2,0.4-0.1,0.9,0.2,1.2c0.2,0.2,0.4,0.2,0.7,0.2
		c0.2,0,0.4-0.1,0.6-0.2c0.4-0.3,9.7-6.8,8-14.7c-0.6-3-2.1-5.2-3.4-7.1c-2-3-3.5-5.2-1.3-9.2C109,73.3,120.7,64.5,120.8,64.4z"/>
	<path id="XMLID_10_" class="st3" d="M60.9,109.4c-0.4,1.2-0.2,2.4,0.5,3.4c2.5,3.5,11.3,5.4,24.9,5.4c0,0,0,0,0,0
		c1.8,0,3.8,0,5.8-0.1c21.7-0.8,29.7-7.5,30-7.8c0.4-0.3,0.5-0.8,0.2-1.3c-0.2-0.4-0.7-0.6-1.2-0.5c-7.6,2.1-21.9,2.8-31.8,2.8
		c-11.1,0-16.7-0.8-18.1-1.4c0.7-1,5.1-2.7,10.5-3.8c0.5-0.1,0.9-0.6,0.8-1.1c-0.1-0.5-0.5-0.9-1-0.9
		C78.4,104.1,62.5,104.4,60.9,109.4z"/>
	<path id="XMLID_11_" class="st3" d="M133.4,102.4c-4.5,0-8.7,2.2-8.9,2.3c-0.4,0.2-0.6,0.7-0.5,1.2c0.1,0.5,0.5,0.8,1,0.8
		c0.1,0,9.5,0.1,10.4,5.5c0.8,4.7-8.9,12.2-12.7,14.7c-0.4,0.3-0.6,0.8-0.4,1.2c0.2,0.4,0.5,0.6,0.9,0.6c0.1,0,0.1,0,0.2,0
		c0.9-0.2,22-4.9,19.8-17.2C141.9,104,137.1,102.4,133.4,102.4z"/>
	<path id="XMLID_12_" class="st3" d="M118.9,125.4c0.1-0.4-0.1-0.8-0.4-1l-5.1-3.6c-0.2-0.2-0.6-0.2-0.8-0.2
		c-0.1,0-5.4,1.4-13.1,2.3c-3.1,0.3-6.5,0.5-9.9,0.5c-7.7,0-12.7-0.9-13.5-1.6c-0.1-0.2-0.1-0.3,0-0.3c0.1-0.4,0.8-0.8,1.3-1
		c0.5-0.2,0.8-0.7,0.6-1.3c-0.2-0.5-0.7-0.8-1.2-0.7c-5.1,1.2-7.6,2.9-7.4,5.1c0.3,3.8,9.2,5.8,16.7,6.3c1.1,0.1,2.2,0.1,3.5,0.1
		c0,0,0,0,0,0c12.5,0,28.4-3.9,28.6-3.9C118.5,126.1,118.8,125.8,118.9,125.4z"/>
	<path id="XMLID_13_" class="st3" d="M80.7,133.6c0.4-0.3,0.6-0.7,0.4-1.2c-0.1-0.4-0.5-0.7-1-0.7c-0.7,0-6.7,0.3-7.1,4.1
		c-0.1,1.1,0.2,2.2,1,3.1c2.2,2.5,8,4.1,17.7,4.6c1.2,0.1,2.3,0.1,3.5,0.1c12.4,0,20.8-3.9,21.2-4.1c0.3-0.2,0.6-0.5,0.6-0.9
		c0-0.4-0.2-0.7-0.5-0.9l-6.4-3.9c-0.2-0.1-0.5-0.2-0.7-0.1c0,0-4.1,0.9-10.2,1.7c-1.2,0.2-2.6,0.2-4.3,0.2c-6.1,0-13-1-14.3-1.7
		C80.5,133.9,80.5,133.7,80.7,133.6z"/>
	<path id="XMLID_14_" class="st3" d="M89.4,155.4c28.5,0,43.8-5.1,46.7-8.3c1-1.1,1.2-2.2,1.1-2.9c-0.2-1.7-1.8-2.8-2-2.9
		c-0.4-0.3-1-0.2-1.3,0.2c-0.3,0.4-0.3,0.9,0,1.3c0.2,0.2,0.3,0.6-0.2,1.1c-1.2,1.1-13.1,4.4-32.8,5.4c-2.7,0.1-5.6,0.2-8.4,0.2
		c-17.7,0-30.7-2.4-32.4-3.8c0.7-0.9,5.2-2.4,10.1-3.3c0.5-0.1,0.9-0.6,0.8-1.2c-0.1-0.6-0.6-0.9-1.1-0.9c-0.1,0-0.6,0-1.1,0.1
		c-8,0.5-17.3,1.6-17.8,5.7c-0.1,1.3,0.2,2.4,1.1,3.4C54.1,152.2,60.4,155.4,89.4,155.4C89.4,155.4,89.4,155.4,89.4,155.4z"/>
	<path id="XMLID_15_" class="st3" d="M141.8,148c-0.4-0.2-0.9-0.1-1.2,0.2c0,0-4.3,4.5-17.2,7.2c-4.9,1-14.2,1.5-27.5,1.5
		c-13.4,0-26.1-0.5-26.2-0.5c-0.5,0-1,0.4-1.1,0.9c-0.1,0.5,0.3,1,0.8,1.1c0.1,0,13.4,3.2,31.7,3.2c8.7,0,17.2-0.7,25.3-2.1
		c15-2.6,16-10,16-10.4C142.4,148.6,142.2,148.2,141.8,148z"/>
</g>
</svg>
